<mxfile host="app.diagrams.net" agent="Mozilla/5.0 (Windows NT 10.0; Win64; x64; rv:136.0) Gecko/20100101 Firefox/136.0" version="26.1.0">
  <diagram name="1 oldal" id="RwQwfzgpPS_8S1Amebba">
    <mxGraphModel dx="1033" dy="465" grid="1" gridSize="10" guides="1" tooltips="1" connect="1" arrows="1" fold="1" page="1" pageScale="1" pageWidth="827" pageHeight="1169" math="0" shadow="0">
      <root>
        <mxCell id="0" />
        <mxCell id="1" parent="0" />
        <mxCell id="Ajomx326fRMmlN7Pyihh-15" style="edgeStyle=orthogonalEdgeStyle;rounded=0;orthogonalLoop=1;jettySize=auto;html=1;exitX=0.5;exitY=1;exitDx=0;exitDy=0;entryX=0.5;entryY=0;entryDx=0;entryDy=0;" edge="1" parent="1" source="Ajomx326fRMmlN7Pyihh-1" target="Ajomx326fRMmlN7Pyihh-2">
          <mxGeometry relative="1" as="geometry" />
        </mxCell>
        <mxCell id="Ajomx326fRMmlN7Pyihh-1" value="AHWDO6_orarend" style="rounded=0;whiteSpace=wrap;html=1;" vertex="1" parent="1">
          <mxGeometry x="380" y="20" width="94" height="40" as="geometry" />
        </mxCell>
        <mxCell id="Ajomx326fRMmlN7Pyihh-16" style="edgeStyle=orthogonalEdgeStyle;rounded=0;orthogonalLoop=1;jettySize=auto;html=1;exitX=0.551;exitY=0.952;exitDx=0;exitDy=0;entryX=0.543;entryY=0.012;entryDx=0;entryDy=0;exitPerimeter=0;entryPerimeter=0;" edge="1" parent="1" source="Ajomx326fRMmlN7Pyihh-2" target="Ajomx326fRMmlN7Pyihh-3">
          <mxGeometry relative="1" as="geometry" />
        </mxCell>
        <mxCell id="Ajomx326fRMmlN7Pyihh-2" value="tartalmaz" style="rhombus;whiteSpace=wrap;html=1;" vertex="1" parent="1">
          <mxGeometry x="387.75" y="80" width="83" height="60" as="geometry" />
        </mxCell>
        <mxCell id="Ajomx326fRMmlN7Pyihh-3" value="ora" style="rounded=0;whiteSpace=wrap;html=1;" vertex="1" parent="1">
          <mxGeometry x="380" y="160" width="98.5" height="40" as="geometry" />
        </mxCell>
        <mxCell id="Ajomx326fRMmlN7Pyihh-4" value="&lt;u&gt;ID&lt;/u&gt;" style="ellipse;whiteSpace=wrap;html=1;" vertex="1" parent="1">
          <mxGeometry x="40" y="300" width="80" height="40" as="geometry" />
        </mxCell>
        <mxCell id="Ajomx326fRMmlN7Pyihh-5" value="tipus" style="ellipse;whiteSpace=wrap;html=1;" vertex="1" parent="1">
          <mxGeometry x="130" y="300" width="80" height="40" as="geometry" />
        </mxCell>
        <mxCell id="Ajomx326fRMmlN7Pyihh-6" value="targy" style="ellipse;whiteSpace=wrap;html=1;" vertex="1" parent="1">
          <mxGeometry x="240" y="300" width="80" height="40" as="geometry" />
        </mxCell>
        <mxCell id="Ajomx326fRMmlN7Pyihh-7" value="(idopont)" style="ellipse;whiteSpace=wrap;html=1;" vertex="1" parent="1">
          <mxGeometry x="650" y="300" width="80" height="40" as="geometry" />
        </mxCell>
        <mxCell id="Ajomx326fRMmlN7Pyihh-8" value="szak" style="ellipse;whiteSpace=wrap;html=1;" vertex="1" parent="1">
          <mxGeometry x="540" y="300" width="80" height="40" as="geometry" />
        </mxCell>
        <mxCell id="Ajomx326fRMmlN7Pyihh-9" value="oktato" style="ellipse;whiteSpace=wrap;html=1;" vertex="1" parent="1">
          <mxGeometry x="440" y="300" width="80" height="40" as="geometry" />
        </mxCell>
        <mxCell id="Ajomx326fRMmlN7Pyihh-10" value="helyszin" style="ellipse;whiteSpace=wrap;html=1;" vertex="1" parent="1">
          <mxGeometry x="340" y="300" width="80" height="40" as="geometry" />
        </mxCell>
        <mxCell id="Ajomx326fRMmlN7Pyihh-11" value="" style="ellipse;whiteSpace=wrap;html=1;" vertex="1" parent="1">
          <mxGeometry x="760" y="470" width="80" height="40" as="geometry" />
        </mxCell>
        <mxCell id="Ajomx326fRMmlN7Pyihh-12" value="tol" style="ellipse;whiteSpace=wrap;html=1;" vertex="1" parent="1">
          <mxGeometry x="660" y="470" width="80" height="40" as="geometry" />
        </mxCell>
        <mxCell id="Ajomx326fRMmlN7Pyihh-13" value="nap" style="ellipse;whiteSpace=wrap;html=1;" vertex="1" parent="1">
          <mxGeometry x="540" y="470" width="80" height="40" as="geometry" />
        </mxCell>
        <mxCell id="Ajomx326fRMmlN7Pyihh-18" value="" style="endArrow=classic;html=1;rounded=0;entryX=0.444;entryY=0.005;entryDx=0;entryDy=0;exitX=0.434;exitY=0.947;exitDx=0;exitDy=0;entryPerimeter=0;exitPerimeter=0;" edge="1" parent="1" source="Ajomx326fRMmlN7Pyihh-2" target="Ajomx326fRMmlN7Pyihh-3">
          <mxGeometry width="50" height="50" relative="1" as="geometry">
            <mxPoint x="424" y="140" as="sourcePoint" />
            <mxPoint x="474" y="80" as="targetPoint" />
          </mxGeometry>
        </mxCell>
        <mxCell id="Ajomx326fRMmlN7Pyihh-21" value="" style="endArrow=classic;html=1;rounded=0;entryX=0.5;entryY=0;entryDx=0;entryDy=0;exitX=0.5;exitY=1;exitDx=0;exitDy=0;" edge="1" parent="1" source="Ajomx326fRMmlN7Pyihh-3">
          <mxGeometry width="50" height="50" relative="1" as="geometry">
            <mxPoint x="421" y="220" as="sourcePoint" />
            <mxPoint x="81" y="300" as="targetPoint" />
          </mxGeometry>
        </mxCell>
        <mxCell id="Ajomx326fRMmlN7Pyihh-22" value="" style="endArrow=classic;html=1;rounded=0;entryX=0.5;entryY=0;entryDx=0;entryDy=0;" edge="1" parent="1" target="Ajomx326fRMmlN7Pyihh-5">
          <mxGeometry width="50" height="50" relative="1" as="geometry">
            <mxPoint x="430" y="200" as="sourcePoint" />
            <mxPoint x="430" y="240" as="targetPoint" />
          </mxGeometry>
        </mxCell>
        <mxCell id="Ajomx326fRMmlN7Pyihh-23" value="" style="endArrow=classic;html=1;rounded=0;entryX=0.5;entryY=0;entryDx=0;entryDy=0;" edge="1" parent="1" target="Ajomx326fRMmlN7Pyihh-6">
          <mxGeometry width="50" height="50" relative="1" as="geometry">
            <mxPoint x="430" y="200" as="sourcePoint" />
            <mxPoint x="430" y="220" as="targetPoint" />
          </mxGeometry>
        </mxCell>
        <mxCell id="Ajomx326fRMmlN7Pyihh-24" value="" style="endArrow=classic;html=1;rounded=0;entryX=0.5;entryY=0;entryDx=0;entryDy=0;exitX=0.5;exitY=1;exitDx=0;exitDy=0;" edge="1" parent="1" source="Ajomx326fRMmlN7Pyihh-3" target="Ajomx326fRMmlN7Pyihh-10">
          <mxGeometry width="50" height="50" relative="1" as="geometry">
            <mxPoint x="380" y="270" as="sourcePoint" />
            <mxPoint x="430" y="220" as="targetPoint" />
          </mxGeometry>
        </mxCell>
        <mxCell id="Ajomx326fRMmlN7Pyihh-25" value="" style="endArrow=classic;html=1;rounded=0;entryX=0.5;entryY=0;entryDx=0;entryDy=0;" edge="1" parent="1" target="Ajomx326fRMmlN7Pyihh-9">
          <mxGeometry width="50" height="50" relative="1" as="geometry">
            <mxPoint x="430" y="200" as="sourcePoint" />
            <mxPoint x="430" y="220" as="targetPoint" />
          </mxGeometry>
        </mxCell>
        <mxCell id="Ajomx326fRMmlN7Pyihh-26" value="" style="endArrow=classic;html=1;rounded=0;entryX=0.5;entryY=0;entryDx=0;entryDy=0;" edge="1" parent="1" target="Ajomx326fRMmlN7Pyihh-8">
          <mxGeometry width="50" height="50" relative="1" as="geometry">
            <mxPoint x="430" y="200" as="sourcePoint" />
            <mxPoint x="630" y="220" as="targetPoint" />
          </mxGeometry>
        </mxCell>
        <mxCell id="Ajomx326fRMmlN7Pyihh-27" value="" style="endArrow=classic;html=1;rounded=0;entryX=0.5;entryY=0;entryDx=0;entryDy=0;exitX=0.5;exitY=1;exitDx=0;exitDy=0;" edge="1" parent="1" source="Ajomx326fRMmlN7Pyihh-3" target="Ajomx326fRMmlN7Pyihh-7">
          <mxGeometry width="50" height="50" relative="1" as="geometry">
            <mxPoint x="580" y="270" as="sourcePoint" />
            <mxPoint x="630" y="220" as="targetPoint" />
          </mxGeometry>
        </mxCell>
        <mxCell id="Ajomx326fRMmlN7Pyihh-28" value="" style="endArrow=classic;html=1;rounded=0;entryX=0.5;entryY=0;entryDx=0;entryDy=0;exitX=0.5;exitY=1;exitDx=0;exitDy=0;" edge="1" parent="1" source="Ajomx326fRMmlN7Pyihh-7" target="Ajomx326fRMmlN7Pyihh-13">
          <mxGeometry width="50" height="50" relative="1" as="geometry">
            <mxPoint x="580" y="450" as="sourcePoint" />
            <mxPoint x="630" y="400" as="targetPoint" />
          </mxGeometry>
        </mxCell>
        <mxCell id="Ajomx326fRMmlN7Pyihh-29" value="" style="endArrow=classic;html=1;rounded=0;entryX=0.488;entryY=-0.061;entryDx=0;entryDy=0;entryPerimeter=0;exitX=0.5;exitY=1;exitDx=0;exitDy=0;" edge="1" parent="1" source="Ajomx326fRMmlN7Pyihh-7" target="Ajomx326fRMmlN7Pyihh-12">
          <mxGeometry width="50" height="50" relative="1" as="geometry">
            <mxPoint x="580" y="450" as="sourcePoint" />
            <mxPoint x="630" y="400" as="targetPoint" />
          </mxGeometry>
        </mxCell>
        <mxCell id="Ajomx326fRMmlN7Pyihh-30" value="" style="endArrow=classic;html=1;rounded=0;entryX=0.5;entryY=0;entryDx=0;entryDy=0;exitX=0.5;exitY=1;exitDx=0;exitDy=0;" edge="1" parent="1" source="Ajomx326fRMmlN7Pyihh-7" target="Ajomx326fRMmlN7Pyihh-11">
          <mxGeometry width="50" height="50" relative="1" as="geometry">
            <mxPoint x="580" y="450" as="sourcePoint" />
            <mxPoint x="630" y="400" as="targetPoint" />
          </mxGeometry>
        </mxCell>
      </root>
    </mxGraphModel>
  </diagram>
</mxfile>
